<?xml version="1.0" standalone="no"?><!DOCTYPE svg PUBLIC "-//W3C//DTD SVG 1.1//EN" "http://www.w3.org/Graphics/SVG/1.1/DTD/svg11.dtd"><svg t="1612439953961" class="icon" viewBox="0 0 1024 1024" version="1.1" xmlns="http://www.w3.org/2000/svg" p-id="2148" xmlns:xlink="http://www.w3.org/1999/xlink" width="200" height="200"><defs><style type="text/css"></style></defs><path d="M717.7 642.7c7.5-10.9 4.7-25.9-6.3-33.4-35.6-24.4-75.9-41-120.4-49.9 96.6-36.6 165.2-130 165.2-239.4 0-141.3-114.6-255.9-255.9-255.9s-255.9 114.7-255.9 256c0 111.6 71.4 206.5 171 241.5-45.4 9.4-87.3 25.7-125.4 48.8-51 31-94.9 74.1-130.4 128.1-59.9 91.1-75.1 181.2-75.7 185l-1.3 8.3c-2 13.1 7 25.4 20.1 27.4 1.2 0.2 2.5 0.3 3.7 0.3 11.6 0 21.9-8.5 23.7-20.4l1.2-8c0.5-2.9 14.8-84.7 68.4-166.3C271.6 655.5 376.8 600 512.3 600c66.7 0 124.6 16.5 172.1 48.9 10.9 7.6 25.8 4.8 33.3-6.2zM292.4 320.1c0-55.5 21.6-107.7 60.9-147s91.5-60.9 147-60.9 107.7 21.6 147 60.9 60.9 91.5 60.9 147-21.6 107.7-60.9 147-91.5 60.9-147 60.9-107.7-21.6-147-60.9-60.9-91.4-60.9-147zM936.5 784.1H832.9V680.5c0-13.3-10.7-24-24-24s-24 10.7-24 24v103.6H681.3c-13.3 0-24 10.7-24 24s10.7 24 24 24h103.6v103.6c0 13.3 10.7 24 24 24s24-10.7 24-24V832.1h103.6c13.3 0 24-10.7 24-24s-10.8-24-24-24z" p-id="2149"></path></svg>