<?xml version="1.0" standalone="no"?><!DOCTYPE svg PUBLIC "-//W3C//DTD SVG 1.1//EN" "http://www.w3.org/Graphics/SVG/1.1/DTD/svg11.dtd"><svg t="1612107760109" class="icon" viewBox="0 0 1024 1024" version="1.1" xmlns="http://www.w3.org/2000/svg" p-id="4098" xmlns:xlink="http://www.w3.org/1999/xlink" width="200" height="200"><defs><style type="text/css"></style></defs><path d="M609.4 685.2c-14.3-33.8-34.7-64.1-60.8-90.2-26.1-26-56.4-46.5-90.2-60.8-8.7-3.7-17.5-6.9-26.4-9.7 39.2-26.4 65.4-70.9 66.5-121.2 1.9-85.5-68-155.4-153.5-153.5-80 1.8-145 66.8-146.8 146.8-1.2 53.1 25.4 100.2 66.2 127.8-9.1 2.8-18.1 6.1-26.9 9.8-33.8 14.3-64.1 34.7-90.2 60.8-26.1 26.1-46.5 56.4-60.8 90.2-12.1 28.7-19.4 58.8-21.6 89.9-0.8 11.1 8 20.6 19.1 20.6 10 0 18.4-7.7 19.1-17.7 9.1-127.1 115.4-227.7 244.8-227.7S583.6 650.9 592.7 778c0.7 10 9.1 17.7 19.1 17.7 11.1 0 19.9-9.5 19.1-20.6-2.2-31.1-9.4-61.2-21.5-89.9zM236.5 403.7C234.4 339.1 287.4 286 352 288.2c58.6 1.9 106.2 49.5 108.1 108.1 2.1 64.6-50.9 117.6-115.5 115.5-58.6-1.9-106.2-49.5-108.1-108.1zM958.3 770.9c-2.6-32.6-10.3-64.4-23.1-94.6-15.5-36.5-37.6-69.3-65.7-97.5-19.5-19.5-41.2-36-64.8-49.5-11.6-6.6-15.3-21.7-7.8-32.8 19.1-28.3 29.3-61.5 29.3-96.4 0-86.5-63.7-158.4-146.7-171.2-13.9-2.1-26.5 8.7-26.5 22.7 0 11.4 8.4 21 19.6 22.7 60.8 9.5 107.5 62.2 107.5 125.7 0 34.5-13.7 66.9-38.5 91.1-9.5 9.2-13.7 22.5-11.2 35.4 2.4 12.9 11.2 23.7 23.3 28.8l0.4 0.2c31 13.1 58.9 31.9 82.9 55.9 23.9 23.9 42.7 51.8 55.9 82.9 10.8 25.6 17.4 52.5 19.6 80.2 1 12 10.9 21.3 22.9 21.3 13.4-0.2 24-11.6 22.9-24.9z" p-id="4099"></path><path d="M760.7 676.9c-15.5-36.5-37.6-69.3-65.7-97.5-19.5-19.5-41.2-36-64.8-49.5-11.6-6.6-15.3-21.7-7.8-32.8 19.1-28.3 29.3-61.5 29.3-96.4 0-86.5-63.7-158.4-146.7-171.2-13.9-2.1-26.5 8.7-26.5 22.7 0 11.4 8.4 21 19.6 22.7 60.8 9.5 107.5 62.2 107.5 125.7 0 34.5-13.7 66.9-38.5 91.1-9.5 9.2-13.7 22.5-11.2 35.4 2.4 12.9 11.2 23.7 23.3 28.8l0.4 0.2c31 13.1 58.9 31.9 82.9 55.9 23.9 23.9 42.7 51.8 55.9 82.9 10.8 25.6 17.4 52.5 19.6 80.2 1 12 10.9 21.3 22.9 21.3 13.4 0 24-11.4 22.9-24.8-2.6-32.7-10.3-64.4-23.1-94.7z" p-id="4100"></path></svg>