<?xml version="1.0" standalone="no"?><!DOCTYPE svg PUBLIC "-//W3C//DTD SVG 1.1//EN" "http://www.w3.org/Graphics/SVG/1.1/DTD/svg11.dtd"><svg t="1612439977169" class="icon" viewBox="0 0 1024 1024" version="1.1" xmlns="http://www.w3.org/2000/svg" p-id="2940" xmlns:xlink="http://www.w3.org/1999/xlink" width="200" height="200"><defs><style type="text/css"></style></defs><path d="M821.76 356.864H680.96s20.992-69.12 31.744-186.368c5.12-59.392-36.864-115.712-98.304-122.368-3.584-0.512-7.68-0.512-11.264-0.512-50.176 0-94.208 34.304-103.424 82.944 0 0-14.848 76.288-22.528 103.424-12.8 45.056-57.856 94.72-90.112 111.104-24.576 12.288-115.712 12.288-121.344 12.288H140.288c-34.304 0-61.952 27.648-61.952 61.952v495.616c0 34.304 27.648 61.952 61.952 61.952h571.904c92.16 0 169.984-67.584 183.808-158.208l48.128-318.976c11.264-75.776-46.592-142.848-122.368-142.848zM146.432 424.96h125.44v483.328H146.432V424.96z m730.112 64l-48.128 318.976c-8.704 57.344-58.368 100.352-116.224 100.352H340.48V422.4c51.712-4.608 69.12-12.8 75.776-16.384 47.104-23.04 107.008-87.04 125.952-153.6 8.192-29.184 22.528-100.864 24.064-109.568 3.072-15.872 18.432-27.136 36.352-27.136 1.024 0 2.048 0 4.608 0.512 24.576 2.56 39.424 27.136 37.376 48.128-9.728 107.52-28.672 172.544-29.184 173.056L588.8 424.96h232.448c22.528 0 35.84 12.288 42.496 19.456 6.144 7.168 16.384 22.528 12.8 44.544z" p-id="2941"></path></svg>