<?xml version="1.0" standalone="no"?><!DOCTYPE svg PUBLIC "-//W3C//DTD SVG 1.1//EN" "http://www.w3.org/Graphics/SVG/1.1/DTD/svg11.dtd"><svg t="1612103546729" class="icon" viewBox="0 0 1024 1024" version="1.1" xmlns="http://www.w3.org/2000/svg" p-id="2569" xmlns:xlink="http://www.w3.org/1999/xlink" width="200" height="200"><defs><style type="text/css"></style></defs><path d="M122.053716 1024c-27.962523 0-55.915053-10.693317-77.161773-31.960025-20.567146-20.587133-31.930044-48-31.930044-77.341661 0-29.241724 11.362898-56.644597 31.930044-77.351656l477.961274-478.410993c-39.085572-96.569644-17.838851-206.560899 56.594628-281.064335 58.403498-58.46346 142.610868-85.53654 224.999375-72.454715 13.411618 2.168645 24.434728 11.602748 28.632105 24.454715 4.20737 12.851968 0.789507 27.073079-8.754528 36.627108L744.104934 146.908182l31.020613 101.346659 103.975015 33.329169 80-80.07995c9.554029-9.554029 23.635228-12.971893 36.597127-8.754528 12.841974 4.20737 22.276077 15.240475 24.434728 28.662086 13.07183 82.468457-13.981262 166.635853-72.494691 225.219238-70.455965 70.525921-172.612117 93.961274-265.913803 62.560899l-482.398501 482.84822c-21.256715 21.266708-49.209244 31.960025-77.271706 31.960025zM706.378513 82.748282c-28.302311 8.86446-54.326046 24.454716-76.022486 46.181137-58.30356 58.353529-71.365397 147.188007-32.509681 220.891943 7.385384 13.991255 4.767021 31.160525-6.366021 42.313554l-495.690194 496.279825c-6.935665 6.935665-10.793254 16.379763-10.793254 26.38351 0 10.003748 3.857589 19.337914 10.793254 26.38351 14.540912 14.560899 38.17614 14.560899 52.617114 0l498.988133-499.447845c10.453467-10.46346 26.363523-13.531543 40.004997-7.505309 72.044972 31.960025 154.083698 16.71955 209.319175-38.565896 21.706433-21.726421 37.386633-47.770144 46.141162-76.092442l-28.522174 28.552154c-9.554029 9.544035-23.61524 12.971893-36.477201 8.86446l-142.730794-45.841349c-11.242973-3.637726-19.997502-12.51218-23.415365-23.77514l-42.953154-140.022486c-3.867583-12.732042-0.459713-26.613367 8.974391-36.057465l28.642098-28.542161z m215.795128 338.398501h0.339788-0.339788zM230.226109 445.821362c-19.317926 0-37.37664-7.505309-50.908183-21.046846L21.026858 266.22361C7.505309 252.682074 0 234.603373 0 215.265459s7.505309-37.426608 21.026858-50.958151l74.433479-74.503435c28.072455-28.092442 73.753904-28.092442 101.816365 0l158.410993 158.560899c13.531543 13.531543 21.026858 31.620237 21.026858 50.958151s-7.495315 37.426608-21.026858 50.958151l-74.433479 74.503436c-13.641474 13.531543-31.700187 21.036852-51.028107 21.036852z m0-71.995003l-25.454092 25.484072 25.454092-25.484072z m-83.857589-233.064335L71.935041 215.265459l158.291068 158.450968 74.54341-74.503435-158.400999-158.450968z m261.706433 376.604622c-9.204247 0-9.204247 12.851968-16.249844 5.796377L276.137414 396.11243c-14.091193-14.101187-14.091193-36.846971 0-50.958151 14.091193-14.101187 36.816989-14.101187 50.908183 0l54.096189 54.146158 61.711431 72.904435c14.091193 14.101187 14.091193 36.856964 0 50.958151-7.045597 7.05559-25.574016-5.796377-34.778264-5.796377z m420.687071 503.435353a35.847595 35.847595 0 0 1-25.454091-10.573392L594.098688 800.829482c-6.705809-6.705809-10.563398-15.92005-10.563398-25.474079 0-9.554029 3.747658-18.76827 10.563398-25.484073l86.25609-86.33604c14.091193-14.111181 36.816989-14.111181 50.908183 0l209.319175 209.399126c6.705809 6.715803 10.573392 15.930044 10.573392 25.484072s-3.747658 18.76827-10.573392 25.474079l-86.366021 86.33604c-6.925671 7.05559-16.129919 10.573392-25.454091 10.573392z m-158.301062-245.45659l158.410993 158.5609 35.337914-35.377889-158.401-158.670831-35.347907 35.48782z m-16.359775-15.810119c-9.204247 0-18.408495-3.527795-25.454091-10.583385l-104.094941-104.634603c-14.091193-14.101187-14.091193-36.856964 0-50.958151 14.091193-14.111181 36.816989-14.111181 50.908182 0l104.084947 104.644597c14.091193 14.111181 14.091193 36.856964 0 50.958151a35.849594 35.849594 0 0 1-25.444097 10.573391z m0 0" p-id="2570"></path></svg>