<?xml version="1.0" standalone="no"?><!DOCTYPE svg PUBLIC "-//W3C//DTD SVG 1.1//EN" "http://www.w3.org/Graphics/SVG/1.1/DTD/svg11.dtd"><svg t="1612107946557" class="icon" viewBox="0 0 1024 1024" version="1.1" xmlns="http://www.w3.org/2000/svg" p-id="7833" xmlns:xlink="http://www.w3.org/1999/xlink" width="200" height="200"><defs><style type="text/css"></style></defs><path d="M960 512c0 6.9-0.2 13.7-0.5 20.5-1.2 26.7-4.7 52.7-10.4 77.9-13 58-37.2 111.7-70.3 158.8-8.1 11.6-16.8 22.7-25.9 33.5-37.9 44.4-84.3 81.3-136.6 108.1C655 942.3 585.6 960 512 960c-150.3 0-283.3-74-364.6-187.6-2.9-4.1-5.8-8.2-8.6-12.4-17-25.6-31.5-53-43.1-82-4.4-11.1-8.5-22.5-12-34-10.4-33.6-16.8-68.8-19-105.3-0.1-2-0.2-4.1-0.3-6.1-0.3-6.8-0.5-13.7-0.5-20.5 0-12.5 0.5-25 1.5-37.3C84.5 244.8 277.1 64 512 64c63.6 0 124.1 13.2 178.9 37.2 26.9 11.7 52.4 26 76.2 42.5C882.2 223.6 958.1 356 960 506.2v5.8z" fill="#A4E7FF" p-id="7834"></path><path d="M878.8 769.2c-8.1 11.6-16.8 22.7-25.9 33.5-37.9 44.4-84.3 81.3-136.6 108.1C655 942.3 585.6 960 512 960c-150.3 0-283.3-74-364.6-187.6 10.2-2.7 21.9-4.4 35.8-4.4 43.9 0 66 16.2 87.4 32 21 15.4 40.9 30 81.5 30s60.5-14.6 81.5-30c21.4-15.7 43.5-32 87.4-32s66 16.2 87.4 32c14.7 10.8 28.8 21.1 49.7 26.4 9.1 2.3 19.5 3.6 31.8 3.6 30 0 48.7-8 64.9-18.4 5-3.2 9.8-6.7 14.7-10.2 0.6-0.5 1.3-0.9 1.9-1.4 14.1-10.3 28.4-20.9 49.1-26.9 10.8-3.2 23.3-5.1 38.3-5.1 7.3 0 13.9 0.4 20 1.2z" fill="#47CDFF" p-id="7835"></path><path d="M720 515.4c0 114.9-93.1 208-208 208h-0.7c-39-0.1-75.4-11-106.5-29.7C344.4 657.3 304 591.1 304 515.4c0-111.1 194.5-340.6 207.3-355.6 0.4-0.5 0.7-0.8 0.7-0.8l0.1 0.2c6.1 7 207.9 243 207.9 356.2z" fill="#A4E7FF" p-id="7836"></path><path d="M404.8 693.7C344.4 657.3 304 591.1 304 515.4 304 400.5 512 159 512 159l0.1 0.2C463.8 227.4 374.9 364.3 352 479c-25 125.3 28.5 191.8 52.8 214.7z" fill="#FFFFFF" p-id="7837"></path><path d="M720 516.4c0 114.9-93.1 208-208 208h-0.7V160.8c0.4-0.5 0.7-0.8 0.7-0.8l0.1 0.2c6.1 7 207.9 243 207.9 356.2z" fill="#47CDFF" p-id="7838"></path><path d="M619.2 694.7C679.6 658.3 720 592.1 720 516.4 720 401.5 512 160 512 160l-0.1 0.2C560.2 228.4 649.1 365.3 672 480c25 125.3-28.5 191.8-52.8 214.7z" fill="#4779FC" p-id="7839"></path></svg>